<svg width="220" height="80" viewBox="0 0 220 80" xmlns="http://www.w3.org/2000/svg"><title>ico-macworld-white</title><g fill="#FFF" fill-rule="evenodd"><path d="M59.946 52.138V39.26h-.168L53.64 49.625H52.3L46.16 39.26h-.166V52.14h-4.662v-22.19h4.595l7.177 12.166h.066l7.144-12.165h4.46v22.188h-4.828M78.14 47.38v-1.595c-.704-.612-2.112-1.19-3.79-1.19-2.65 0-3.622 1.053-3.622 2.31 0 1.395 1.108 2.31 2.984 2.31 2.35 0 3.925-1.358 4.428-1.834zm-10.732-10.6c1.543-.782 4.494-1.768 7.647-1.768 3.756 0 7.546 1.292 7.546 5.03v8.868c0 .748.068 1.97.47 3.228h-4.426c-.168-.508-.302-1.29-.403-1.902-1.207 1.19-2.65 2.31-5.5 2.31-3.956 0-6.472-2.412-6.472-5.64 0-3.093 2.615-5.505 7.177-5.505 1.744 0 3.488.41 4.695 1.36v-1.665c0-1.733-1.475-2.515-3.454-2.515-2.08 0-4.695.918-5.902 1.564l-1.376-3.365zM97.31 40.824c-1.34-1.326-2.883-1.97-4.192-1.97-2.414 0-4.36 1.9-4.36 4.925 0 3.024 2.08 5.062 4.528 5.062 1.644 0 3.153-1.02 4.394-2.242l2.75 2.786c-.705.85-3.455 3.262-7.647 3.262-4.73 0-8.787-3.533-8.787-8.87 0-5.3 3.924-8.766 8.787-8.766 2.516 0 5.165.884 7.31 2.82l-2.782 2.992M115.155 35.556l2.95 10.602h.202l2.55-10.602h4.594l-5.198 16.582h-4.26l-2.85-10.16h-.202l-2.883 10.16h-4.227l-5.198-16.582h4.696l2.616 10.602h.2l2.952-10.602h4.06M133.683 48.91c2.785 0 4.394-2.378 4.394-5.13 0-2.72-1.61-4.996-4.394-4.996-2.716 0-4.293 2.277-4.293 4.995 0 2.752 1.577 5.13 4.293 5.13zm0-13.898c5.333 0 8.955 3.84 8.955 8.767s-3.622 8.868-8.955 8.868c-5.3 0-8.887-3.94-8.887-8.87 0-4.926 3.588-8.766 8.887-8.766zM148.485 41.47v10.668h-4.494V40.246c0-1.394-.134-2.855-.47-4.69h4.093c.134.714.27 1.63.336 2.482 1.005-1.7 2.18-3.026 4.292-3.026.838 0 1.944.238 2.515.68l-1.242 4.146c-.503-.204-1.61-.476-2.212-.476-1.174 0-1.913.918-2.818 2.108M156.21 28.352h4.494v23.786h-4.494V28.352zM167.058 43.78c0 3.024 1.676 5.028 3.79 5.028 1.945 0 3.387-1.223 3.957-1.834V40.72c-1.174-1.154-2.615-1.868-3.957-1.868-2.146 0-3.79 1.903-3.79 4.927zm8.385 8.358c-.1-.576-.17-1.393-.2-1.97-1.008 1.155-2.786 2.446-5.066 2.446-4.36 0-7.95-3.5-7.95-8.835 0-5.302 3.624-8.768 7.95-8.768 1.61 0 3.286.782 4.628 2.04v-8.7h4.494v19.063c0 1.36 0 2.786.368 4.723h-4.225z"/></g></svg>