<svg width="220" height="80" viewBox="0 0 220 80" xmlns="http://www.w3.org/2000/svg"><title>ico-accounting-today-white</title><g fill="#FFF" fill-rule="evenodd"><path d="M40.316 44.647c-2.713 0-4.463-2.125-4.463-4.75 0-2.627 1.458-4.96 4.317-4.96 1.458 0 2.48.532 3.442 1.565l1.984-1.83c-1.37-1.504-3.297-2.213-5.31-2.213-4.317 0-7.234 3.068-7.234 7.377 0 4.31 2.975 7.29 7.235 7.29 2.012 0 3.88-.62 5.25-2.155l-1.866-1.89c-.875 1.033-1.896 1.565-3.354 1.565zm96.305-11.863v2.007h-.056c-1.02-1.504-2.947-2.36-4.814-2.36-4.288 0-7.03 3.217-7.03 7.348-.03 4.072 2.975 7.17 7.03 7.17 1.896 0 3.793-.796 4.784-2.478h.087v2.066c0 2.36-1.077 4.84-4.986 4.84-2.013 0-3.56-.798-4.93-2.273l-1.78 2.242c1.955 1.83 4.142 2.51 6.768 2.51 4.52 0 7.555-2.98 7.555-7.2v-13.87h-2.626zm-4.55 11.686c-2.8 0-4.55-1.86-4.55-4.692 0-2.833 1.75-4.87 4.55-4.87s4.55 2.037 4.55 4.87-1.75 4.692-4.55 4.692zm-80.288.177c-2.713 0-4.463-2.125-4.463-4.75 0-2.627 1.457-4.96 4.316-4.96 1.46 0 2.48.532 3.442 1.565l1.984-1.83c-1.37-1.504-3.296-2.213-5.31-2.213-4.316 0-7.234 3.068-7.234 7.377 0 4.31 2.976 7.29 7.235 7.29 2.013 0 3.88-.62 5.25-2.155l-1.866-1.89c-.876 1.033-1.897 1.565-3.355 1.565zm-19.547-7.554c0-2.42-1.692-4.663-5.776-4.663-1.926 0-4.026.68-5.485 2.066l1.576 1.652c.963-.737 1.926-1.593 3.94-1.593 2.245 0 3.295 1.505 3.295 2.95v.59H27.86c-4.2 0-7.614 1.24-7.614 4.84 0 2.715 2.217 4.19 4.784 4.19 2.1 0 3.676-.678 4.843-2.478h.058c0 .708.03 1.416.088 2.125h2.334c-.088-.738-.117-1.565-.117-2.538v-7.14zm-2.45 3.836c0 1.887-1.02 4.07-3.938 4.07-1.81 0-2.976-.678-2.976-2.27 0-2.244 3.035-2.686 5.515-2.686h1.4v.885zm51.23-.946c0 3.247-1.662 4.663-3.85 4.663-1.663 0-3.15-.974-3.15-3.6v-8.263h-2.626v9c0 3.72 2.333 5.342 5.017 5.342 2.13 0 3.88-1.033 4.55-2.51h.058v2.156h2.626V32.784h-2.625v7.2zm21.53 1.447v-6.344h3.764v-2.302h-3.764v-2.607l-2.625.527v2.08h-3.033v2.302h3.034v7.29c0 2.24.06 4.75 4.114 4.75.525 0 1.75-.12 2.362-.472v-2.42c-.524.324-1.254.413-1.866.413-1.984 0-1.984-1.653-1.984-3.216zm5.02 5.342h2.624V32.784h-2.626v13.988zM63.334 32.43c-4.113 0-7.35 3.275-7.35 7.348 0 4.072 3.237 7.348 7.35 7.348 4.114 0 7.352-3.276 7.352-7.348 0-4.073-3.238-7.348-7.35-7.348zm0 12.217c-2.8 0-4.55-2.036-4.55-4.87 0-2.832 1.75-4.868 4.55-4.868s4.55 2.035 4.55 4.868-1.75 4.87-4.55 4.87zM91.99 32.43c-2.13 0-3.88 1.033-4.55 2.508h-.06v-2.154h-2.624v13.988h2.625v-7.2c0-3.247 1.662-4.663 3.85-4.663 1.662 0 3.15.973 3.15 3.6v8.262h2.625v-9c0-3.72-2.333-5.342-5.017-5.342zm26.752 0c-2.13 0-3.88 1.033-4.55 2.508h-.06v-2.154h-2.624v13.988h2.625v-7.2c0-3.247 1.664-4.663 3.85-4.663 1.664 0 3.152.973 3.152 3.6v8.262h2.625v-9c0-3.72-2.333-5.342-5.017-5.342zM176.144 34.45c-1.318-1.167-3.09-1.734-4.92-1.734h-5.516v14.12h5.222c3.345-.005 7.39-2.233 7.39-7.06 0-2.386-.857-4.157-2.176-5.325zm-6.074 10.07h-1.836v-9.486h2.247c3.01 0 5.197 1.344 5.197 4.743 0 3.398-2.52 4.742-5.607 4.742zm12.876-11.804l-.017.04-6.057 14.08h2.898l1.25-3.2h5.91l1.288 3.2h2.957l-6.015-14.12h-2.214zm-1.034 8.654l2.072-5.44 2.036 5.44h-4.108zm-30.775-8.654h-11.07V35.1h4.238v11.737h2.593V35.1h4.24v-2.384zm6.66-.357h-.172c-2.143 0-3.987.737-5.294 2.042-1.306 1.305-2.074 3.176-2.074 5.434 0 2.198.768 4.04 2.076 5.33 1.307 1.29 3.15 2.027 5.295 2.027 4.348-.076 7.433-3.036 7.43-7.436 0-2.23-.748-4.08-2.033-5.373-1.283-1.294-3.1-2.026-5.228-2.025zm-.15 12.45c-2.815-.003-4.68-2.177-4.682-5.133.002-2.756 1.866-4.93 4.682-4.933 2.835.003 4.698 2.177 4.7 4.933-.003 2.956-1.866 5.13-4.7 5.132zM196.9 32.715l-3.402 5.513-3.363-5.514h-3.243l5.252 8.087v6.034h2.592v-6.034l5.25-8.087H196.9z"/></g></svg>