<svg width="220" height="80" viewBox="0 0 220 80" xmlns="http://www.w3.org/2000/svg"><title>ico-forbes-white</title><path d="M86.552 35.155c-5.604 0-8.707 4.052-8.62 8.966 0 5.087 2.758 8.88 8.275 8.88s8.62-4.052 8.62-8.966c0-5.086-2.758-8.88-8.275-8.88zm2.845 8.88c0 4.568-.69 8.017-3.018 8.017-2.156 0-3.19-3.535-3.19-8.018 0-4.568.69-8.017 3.017-8.017 2.24 0 3.276 3.62 3.19 8.017zm-15.95-13.45c3.105 0 4.83 1.984 5.863 5.432l1.207-.345-.086-6.81H60v.948l1.12.173c1.552.258 2.156 1.207 2.328 3.362.345 4.138.345 11.638 0 15.172-.172 2.155-.776 3.104-2.327 3.362L60 52.05V53h13.103v-.948l-1.38-.173c-1.55-.26-2.154-1.208-2.326-3.363-.087-1.465-.173-3.965-.26-6.896l2.673.087c1.81.086 2.587 1.38 3.018 3.362h1.034v-8.19h-1.034c-.43 1.982-1.207 3.275-3.018 3.36l-2.672.088c0-3.88.086-7.587.26-9.742h4.05zm47.415 4.57c-1.552 0-2.845.43-4.224 1.035 0-3.707.086-6.983.172-8.19l-7.672 1.466v.69l.776.085c1.034.174 1.465.777 1.638 2.157.258 2.758.172 17.413 0 19.74 2.07.432 4.31.777 6.55.777 6.122 0 9.83-3.793 9.83-9.655-.087-4.743-3.104-8.105-7.07-8.105zm-2.328 16.983c-.43 0-.948-.086-1.206-.086-.087-1.724-.173-8.62-.173-14.742.69-.258 1.12-.258 1.638-.258 2.328 0 3.707 3.017 3.707 6.724 0 4.655-1.638 8.362-3.966 8.362zm-15.086-12.93l.086-4.053-7.844 1.466v.69l.776.087c1.12.172 1.55.775 1.637 2.24.26 2.76.173 7.673 0 10-.086 1.466-.517 2.07-1.637 2.242l-.776.086v.948h10.948v-.948l-1.466-.087c-1.12-.173-1.55-.777-1.638-2.242-.172-2.155-.258-6.466-.086-9.31.518-.862 3.104-1.552 5.43 0l1.984-4.656c-1.983-1.206-5.603-.603-7.414 3.535zm52.414 3.19c-3.19-1.208-4.31-1.984-4.31-3.536 0-1.465.948-2.5 2.327-2.5 2.068 0 3.448 1.293 4.396 4.224l.862-.258-.172-4.225c-1.294-.603-3.104-.948-5.087-.948-4.225 0-6.81 2.5-6.81 5.43 0 3.018 1.982 4.14 4.654 5.087 2.93 1.035 3.62 1.81 3.62 3.19s-1.034 2.672-2.844 2.672c-2.155 0-3.793-1.293-5-4.74l-.862.258.172 4.914c1.38.603 3.793 1.034 5.95 1.034 4.48 0 7.24-2.155 7.24-5.776 0-2.414-1.207-3.707-4.138-4.827zm-17.24-7.243c-5.95 0-8.967 4.397-8.967 9.052 0 5.172 3.62 8.793 8.88 8.793 3.275 0 5.775-1.552 6.982-3.19l-.517-.603c-1.12.862-2.07 1.293-3.88 1.293-4.05 0-6.206-3.103-6.12-7.24h10.776c0-4.57-2.328-8.105-7.155-8.105zM135 42.31c.086-2.844 1.12-6.293 3.103-6.207 1.897 0 2.242 3.62 2.242 6.12L135 42.31z" fill="#FFF" fill-rule="evenodd"/></svg>