<svg width="220" height="80" viewBox="0 0 220 80" xmlns="http://www.w3.org/2000/svg"><title>ico-stars-5-white</title><g fill="#FFF" fill-rule="evenodd"><path d="M57.37 29.323l2.217 7.16c.053.167.2.282.372.282h7.172c.376 0 .534.507.228.74l-5.802 4.424c-.137.104-.193.288-.142.456l2.217 7.16c.117.377-.294.69-.6.457l-5.803-4.425c-.137-.103-.323-.103-.46 0l-5.802 4.425c-.306.233-.717-.08-.6-.457l2.217-7.16c.05-.168-.006-.354-.142-.457l-5.802-4.425c-.305-.233-.148-.74.23-.74h7.172c.17 0 .318-.115.37-.283l2.217-7.16c.116-.377.624-.377.74 0M83.914 29.323l2.216 7.16c.053.167.2.282.37.282h7.175c.376 0 .534.507.228.74L88.1 41.93c-.136.104-.193.288-.14.456l2.216 7.16c.117.377-.294.69-.6.457l-5.804-4.425c-.136-.103-.322-.103-.46 0l-5.8 4.425c-.307.233-.718-.08-.602-.457l2.218-7.16c.05-.168-.006-.354-.142-.457l-5.802-4.425c-.306-.233-.15-.74.227-.74h7.175c.17 0 .318-.115.37-.283l2.217-7.16c.116-.377.625-.377.742 0M110.457 29.323l2.216 7.16c.053.167.2.282.37.282h7.175c.376 0 .534.507.228.74l-5.802 4.424c-.137.104-.194.288-.142.456l2.217 7.16c.116.377-.295.69-.6.457l-5.805-4.425c-.136-.103-.322-.103-.46 0l-5.8 4.425c-.307.233-.718-.08-.602-.457l2.217-7.16c.052-.168-.005-.354-.14-.457l-5.803-4.425c-.306-.233-.15-.74.227-.74h7.174c.17 0 .318-.115.37-.283l2.217-7.16c.116-.377.625-.377.742 0M136.914 29.323l2.216 7.16c.053.167.2.282.37.282h7.175c.376 0 .534.507.228.74L141.1 41.93c-.136.104-.193.288-.14.456l2.216 7.16c.117.377-.294.69-.6.457l-5.804-4.425c-.136-.103-.322-.103-.46 0l-5.8 4.425c-.307.233-.718-.08-.602-.457l2.218-7.16c.05-.168-.006-.354-.142-.457l-5.802-4.425c-.306-.233-.15-.74.227-.74h7.175c.17 0 .318-.115.37-.283l2.217-7.16c.116-.377.625-.377.742 0" id="Shape"/><path d="M163.457 29.323l2.216 7.16c.053.167.2.282.37.282h7.175c.376 0 .534.507.228.74l-5.802 4.424c-.137.104-.194.288-.142.456l2.217 7.16c.116.377-.295.69-.6.457l-5.805-4.425c-.136-.103-.322-.103-.46 0l-5.8 4.425c-.307.233-.718-.08-.602-.457l2.217-7.16c.052-.168-.005-.354-.14-.457l-5.803-4.425c-.306-.233-.15-.74.227-.74h7.174c.17 0 .318-.115.37-.283l2.217-7.16c.116-.377.625-.377.742 0"/></g></svg>